<svg width="52" height="53" viewBox="0 0 52 53" fill="none" xmlns="http://www.w3.org/2000/svg">
<path d="M17.2682 49.7923C11.5916 49.7923 6.97656 45.1773 6.97656 39.5007C6.97656 33.824 11.5916 29.209 17.2682 29.209C22.9449 29.209 27.5599 33.824 27.5599 39.5007C27.5599 45.1773 22.9449 49.7923 17.2682 49.7923ZM17.2682 32.459C13.3899 32.459 10.2266 35.6223 10.2266 39.5007C10.2266 43.379 13.3899 46.5423 17.2682 46.5423C21.1466 46.5423 24.3099 43.379 24.3099 39.5007C24.3099 35.6223 21.1682 32.459 17.2682 32.459Z" fill="#CACACA"/>
<path d="M25.9351 41.1243C25.0467 41.1243 24.3101 40.3877 24.3101 39.4993V9.16602C24.3101 8.27768 25.0467 7.54102 25.9351 7.54102C26.8234 7.54102 27.5601 8.27768 27.5601 9.16602V39.4993C27.5601 40.3877 26.8451 41.1243 25.9351 41.1243Z" fill="#CACACA"/>
<path d="M41.4482 22.6654C40.7332 22.6654 39.9749 22.5354 39.2382 22.2971L29.6615 19.1121C26.6715 18.1154 24.3315 14.8654 24.3315 11.7238V9.16711C24.3315 7.06544 25.1982 5.24544 26.6715 4.16211C28.1665 3.07878 30.1599 2.86211 32.1532 3.51211L41.7299 6.69711C44.7199 7.69378 47.0599 10.9438 47.0599 14.0854V16.6204C47.0599 18.7221 46.1932 20.5421 44.7199 21.6254C43.7882 22.3404 42.6399 22.6654 41.4482 22.6654ZM29.9432 6.39378C29.4232 6.39378 28.9465 6.52378 28.5782 6.80544C27.9282 7.26044 27.5815 8.10544 27.5815 9.16711V11.7021C27.5815 13.4354 29.0332 15.4504 30.6799 16.0138L40.2565 19.1988C41.2532 19.5454 42.1849 19.4588 42.8132 19.0038C43.4632 18.5488 43.8099 17.7038 43.8099 16.6421V14.1071C43.8099 12.3738 42.3582 10.3588 40.7115 9.79544L31.1349 6.61044C30.7232 6.45878 30.3115 6.39378 29.9432 6.39378Z" fill="#CACACA"/>
</svg>
