<svg width="160" height="40" viewBox="0 0 160 40" fill="none" xmlns="http://www.w3.org/2000/svg">
<path d="M5.60216 18.7751C5.60216 21.6252 7.00344 23.0472 9.80304 23.0472H21.0074V28.7443H9.80304C3.26669 28.7443 0 25.4193 0 18.7751V10.231C0 3.58085 3.26669 0.258789 9.80304 0.258789H21.0074V5.9559H9.80304C7.00048 5.9559 5.60216 7.38092 5.60216 10.228V18.7721V18.7751Z" fill="#0E0E10"/>
<path d="M61.9628 28.7443H56.3606V0.258789H61.1232L61.9628 3.10885C63.8311 1.20881 66.1636 0.258789 68.9662 0.258789C75.5025 0.258789 78.7692 3.58085 78.7692 10.228V28.7443H73.1671V10.228C73.1671 7.37792 71.7658 5.9559 68.9662 5.9559C66.1666 5.9559 63.8311 6.4309 61.9628 7.38092V28.7443Z" fill="#0E0E10"/>
<path d="M97.5344 28.7443H90.8118L82.9688 0.258789H88.5709L94.1731 21.6222L99.7752 0.258789H105.377L97.5344 28.7443Z" fill="#0E0E10"/>
<path d="M115.185 16.7789V18.7721C115.185 21.6222 116.587 23.0442 119.386 23.0442H130.591V28.7413H119.386C112.85 28.7413 109.583 25.4193 109.583 18.7721V10.228C109.583 3.58085 112.85 0.258789 119.386 0.258789H122.189C128.725 0.258789 131.992 3.58085 131.992 10.228V16.7789H115.185ZM115.185 12.2212H126.39V10.228C126.39 7.37792 124.988 5.9559 122.189 5.9559H119.386C116.584 5.9559 115.185 7.38092 115.185 10.228V12.2212Z" fill="#0E0E10"/>
<path d="M154.397 0.255371V21.6158C152.523 22.5778 150.196 23.0498 147.397 23.0498C144.597 23.0498 143.187 21.6158 143.187 18.7777V0.255371H137.585V18.7777C137.585 25.4158 140.857 28.7469 147.397 28.7469C150.196 28.7469 152.526 27.7939 154.397 25.8908V28.7469C154.397 31.6571 153.291 33.4549 151.089 34.1344V40.0028C157.028 39.2693 159.999 35.5143 159.999 28.7469V0.255371H154.397Z" fill="#0E0E10"/>
<path d="M42.79 0H37.1879C32.987 0 30.3559 1.60541 29.3035 4.81623C29.3655 4.86133 29.4365 4.89741 29.4986 4.93348C31.0861 5.85043 32.6736 6.78241 34.27 7.70838C34.3321 7.74446 34.3942 7.78053 34.4563 7.81661C34.6957 6.59301 35.6063 5.98572 37.1849 5.98572H42.7871C44.6614 5.98572 45.5867 6.83953 45.5867 8.54416V19.9354C45.5867 21.8414 44.6584 22.7824 42.7871 22.7824H37.1849C35.9551 22.7824 35.1333 22.3735 34.7135 21.5408C34.6159 21.5949 34.5184 21.649 34.4267 21.7121C32.8303 22.6381 31.2251 23.5701 29.6375 24.5051C30.8407 27.1627 33.3654 28.4855 37.182 28.4855H42.7841C48.3863 28.4855 51.1859 25.6385 51.1859 19.9324V8.54416C51.1859 2.84705 48.3863 0 42.7841 0H42.79Z" fill="#0E0E10"/>
<path d="M39.2482 15.6933C38.9674 15.997 38.6244 16.1894 38.2815 16.3848C36.7472 17.2777 35.2188 18.1736 33.6845 19.0725C33.4657 19.1928 33.2529 19.319 33.037 19.4453C33.0045 19.4634 32.9809 19.4784 32.9484 19.4964C32.8804 19.5355 32.8124 19.5716 32.7473 19.6167C31.6299 20.2631 30.5094 20.9154 29.3979 21.5708C29.2855 21.634 29.1791 21.6971 29.0668 21.7602C29.0342 21.7783 29.0047 21.7993 28.9722 21.8113C28.8835 21.8625 28.8036 21.9196 28.709 21.9647C28.6144 22.0158 28.5228 22.0609 28.4164 22.103C28.2597 22.1661 28.0971 22.1992 27.9286 22.1932C27.8606 22.1992 27.7926 22.1751 27.7276 22.2052H27.5206C26.8968 22.103 26.5155 21.6971 26.4031 21.0116C26.3588 20.7771 26.3411 20.5306 26.3411 20.2901V9.1785C26.3411 8.7546 26.3913 8.31566 26.5983 7.92784C26.7727 7.61217 27.021 7.3897 27.3728 7.31754C27.7039 7.25441 28.0409 7.26644 28.3632 7.3927C28.3809 7.39872 28.4016 7.40473 28.4193 7.41675C28.4519 7.42277 28.4814 7.43479 28.508 7.44983C28.7268 7.55204 28.9396 7.67831 29.1554 7.79857C29.1998 7.83164 29.25 7.85569 29.2914 7.87974C30.403 8.5201 31.5116 9.17248 32.6291 9.82186C32.6734 9.84592 32.7178 9.87297 32.7592 9.89702C32.7917 9.91506 32.8212 9.93611 32.8478 9.94813C34.1397 10.7087 35.4376 11.4634 36.7265 12.218C37.4183 12.6238 38.1248 13.0056 38.8048 13.4476C39.1093 13.631 39.3546 13.8865 39.5084 14.2142C39.7389 14.6952 39.6266 15.2604 39.2393 15.6843L39.2482 15.6933Z" fill="#F97316"/>
</svg>
