<svg width="14" height="16" viewBox="0 0 14 16" fill="none" xmlns="http://www.w3.org/2000/svg">
<path d="M9.26432 0H6.1071C3.73931 0 2.25626 0.901436 1.66333 2.7048C1.69852 2.73006 1.73861 2.75087 1.7738 2.77117C2.66881 3.28578 3.56333 3.8103 4.46323 4.32987C4.49843 4.35017 4.53362 4.37048 4.56882 4.39079C4.7047 3.70332 5.21747 3.36206 6.1071 3.36206H9.26432C10.3202 3.36206 10.8427 3.84101 10.8427 4.79841V11.1961C10.8427 12.266 10.3197 12.7954 9.26432 12.7954H6.1071C5.41348 12.7954 4.95106 12.5661 4.71448 12.0976C4.65925 12.1283 4.60401 12.1585 4.55366 12.1942C3.65376 12.7137 2.74898 13.2382 1.85397 13.7632C2.53243 15.2556 3.95536 15.9995 6.1071 15.9995H9.26432C12.4215 15.9995 13.9999 14.4002 13.9999 11.1961V4.79841C13.9999 1.59931 12.4215 0 9.26432 0Z" fill="#0E0E10"/>
<path d="M7.26958 8.81267C7.1112 8.98355 6.91812 9.09054 6.72456 9.20099C5.85985 9.70322 4.99857 10.2054 4.13386 10.7111C4.01068 10.779 3.89141 10.8498 3.76823 10.9211C3.75064 10.932 3.73646 10.939 3.71886 10.9499C3.68025 10.9712 3.64163 10.9925 3.60644 11.0177C2.97734 11.3813 2.34433 11.7478 1.71865 12.1148C1.65511 12.1505 1.59547 12.1861 1.53242 12.2218C1.51482 12.2327 1.49722 12.2431 1.47963 12.2505C1.43026 12.2792 1.3848 12.3109 1.33201 12.3362C1.27921 12.3649 1.22642 12.3897 1.16679 12.4145C1.0788 12.4501 0.987396 12.4679 0.892567 12.4645C0.853951 12.4679 0.815335 12.4536 0.78014 12.4714H0.664292C0.312838 12.4145 0.0982508 12.1866 0.0351943 11.8018C0.0107538 11.67 0 11.5309 0 11.3956V5.15492C0 4.91619 0.028351 4.67053 0.144199 4.45309C0.24245 4.27479 0.383227 4.15047 0.580217 4.11134C0.766454 4.07568 0.956112 4.08261 1.13893 4.15393C1.14968 4.1574 1.15995 4.16087 1.1707 4.1683C1.1883 4.17176 1.20589 4.17919 1.22007 4.18613C1.34325 4.24309 1.46252 4.31441 1.5857 4.38226C1.61014 4.40009 1.63849 4.41446 1.66293 4.42833C2.28861 4.78791 2.91428 5.15492 3.54387 5.51847C3.56831 5.53283 3.59324 5.5472 3.61768 5.56107C3.63528 5.57196 3.65287 5.58236 3.66705 5.58979C4.39489 6.01723 5.12615 6.4412 5.8535 6.86518C6.24357 7.09301 6.64097 7.30698 7.0242 7.55611C7.19626 7.65963 7.33361 7.80178 7.4216 7.98702C7.55162 8.25794 7.48856 8.57493 7.27056 8.81317L7.26958 8.81267Z" fill="#F97316"/>
</svg>